<?xml version="1.0" standalone="no"?>
<!DOCTYPE svg PUBLIC "-//W3C//DTD SVG 20010904//EN"
 "http://www.w3.org/TR/2001/REC-SVG-20010904/DTD/svg10.dtd">
<svg version="1.0" xmlns="http://www.w3.org/2000/svg"
 width="512.000000pt" height="512.000000pt" viewBox="0 0 512.000000 512.000000"
 preserveAspectRatio="xMidYMid meet">
<metadata>
Created by potrace 1.14, written by Peter Selinger 2001-2017
</metadata>
<g transform="translate(0.000000,512.000000) scale(0.100000,-0.100000)"
fill="#000000" stroke="none">
<path d="M2168 4910 c-33 -8 -89 -36 -257 -125 -21 -11 -61 -31 -90 -44 -28
-13 -54 -28 -57 -32 -2 -5 30 8 73 28 73 33 184 62 298 77 28 4 77 15 110 26
33 10 76 21 95 24 35 6 35 6 -8 -14 -24 -11 -48 -17 -53 -14 -6 3 -21 -6 -34
-20 -13 -14 -35 -26 -48 -26 -21 0 -73 -14 -132 -35 -17 -6 -17 -5 -5 5 12 9
7 10 -25 5 -71 -11 -145 -35 -145 -48 0 -7 -44 -37 -97 -67 -203 -116 -417
-302 -530 -460 -15 -21 -35 -41 -44 -43 -21 -6 -138 -162 -161 -217 -37 -85
-87 -185 -121 -242 -19 -31 -33 -59 -31 -62 2 -3 1 -4 -3 -1 -3 3 -19 -18 -35
-46 -16 -28 -32 -49 -35 -46 -2 3 3 17 12 31 10 14 14 26 11 26 -4 0 -1 10 6
23 7 12 11 25 10 30 -1 4 2 7 8 7 6 0 9 3 8 8 -5 13 24 72 35 72 6 0 7 3 4 7
-9 8 105 225 186 354 34 55 83 123 109 153 27 29 58 68 71 86 19 30 78 84 228
213 53 46 34 38 -41 -17 -81 -58 -155 -120 -157 -129 -1 -4 -26 -34 -55 -66
-174 -188 -459 -728 -558 -1059 -12 -40 -24 -71 -26 -69 -6 6 16 180 37 280
19 95 57 205 100 289 11 22 17 38 12 35 -5 -3 -24 -38 -43 -79 -19 -40 -38
-75 -43 -76 -4 -2 -5 -8 -1 -13 3 -5 0 -9 -7 -9 -7 0 -10 -3 -6 -6 3 -4 -5
-28 -18 -55 -51 -99 -87 -282 -89 -452 -2 -104 -8 -143 -40 -265 -72 -281
-101 -500 -92 -707 6 -148 20 -258 37 -284 8 -13 9 -12 3 4 -13 34 -16 355 -4
455 17 149 56 337 97 480 15 49 17 52 24 30 4 -14 7 -65 8 -115 1 -49 5 -137
11 -195 5 -58 14 -152 19 -210 5 -58 13 -121 18 -140 8 -35 8 -34 14 20 6 51
7 49 7 -25 0 -92 27 -445 42 -554 9 -64 8 -82 -10 -138 -23 -74 -26 -160 -8
-245 l12 -58 -31 -28 c-78 -72 -110 -296 -64 -451 13 -41 5 -54 -15 -27 -8 11
-14 15 -14 10 0 -6 5 -15 12 -22 9 -9 3 -24 -25 -64 -48 -71 -87 -158 -95
-215 -8 -50 -17 -59 -76 -68 -74 -12 -29 -14 69 -3 71 7 114 7 150 0 27 -6
122 -27 210 -46 88 -20 198 -38 245 -41 47 -3 106 -8 133 -11 29 -3 47 -1 47
6 0 5 -17 11 -37 11 -32 1 -28 3 27 14 68 14 195 58 216 76 9 7 17 -4 33 -46
42 -112 117 -245 139 -245 17 0 16 2 -19 72 -33 66 -99 230 -99 248 0 24 28 6
76 -48 l52 -58 -39 3 c-21 2 -39 0 -38 -5 0 -4 44 -52 99 -107 86 -87 102 -99
134 -100 45 -2 46 7 4 34 -38 23 -83 69 -123 126 -22 30 -9 21 51 -36 95 -92
152 -129 196 -128 30 0 31 1 13 12 -97 58 -312 364 -273 388 7 5 18 7 23 4 17
-7 108 -32 150 -41 35 -8 40 -12 37 -34 -2 -14 -17 -38 -33 -54 -16 -15 -29
-34 -29 -41 0 -7 -10 -16 -22 -21 -17 -6 -5 -9 42 -11 36 -1 83 -5 105 -8 37
-5 41 -8 40 -35 0 -17 -9 -38 -22 -50 -24 -22 -31 -74 -13 -85 15 -9 236 -16
557 -16 l281 0 51 25 c60 31 70 32 46 7 -16 -19 -16 -20 1 -21 137 -7 794 -10
794 -3 -1 19 -17 30 -55 36 -22 4 -83 22 -135 41 -52 19 -106 37 -120 40 -25
5 -127 76 -188 131 -19 16 -53 38 -75 47 -23 9 -40 17 -37 18 3 0 39 7 80 14
42 8 106 26 142 40 l68 27 100 -22 100 -23 45 22 c44 21 49 22 277 12 128 -5
263 -12 300 -16 l67 -6 -77 -57 c-42 -32 -84 -66 -92 -76 -14 -17 -157 -130
-190 -150 -10 -5 -39 -29 -65 -52 l-48 -43 647 0 646 0 0 536 0 536 -87 -6
c-49 -3 -126 -8 -173 -11 -47 -3 -175 -12 -285 -20 -110 -8 -246 -15 -302 -15
-102 0 -111 3 -103 35 2 6 2 18 2 27 0 9 8 33 19 54 15 30 19 59 19 139 0 111
-14 152 -84 256 -34 51 -38 69 -12 69 20 0 44 31 61 79 8 24 32 80 52 125 l38
81 1 181 c1 101 6 190 12 200 10 19 28 158 24 182 -2 6 2 12 8 12 5 0 10 -5
10 -11 0 -6 13 -31 29 -54 20 -29 28 -52 24 -67 -3 -17 -2 -19 5 -9 8 12 20 6
60 -30 50 -45 169 -115 178 -106 3 3 -5 8 -17 12 -28 9 -131 105 -170 159 -27
36 -40 96 -21 96 4 0 24 -12 43 -26 48 -36 154 -89 230 -114 34 -12 76 -28 92
-37 16 -8 26 -10 23 -4 -5 7 11 11 47 11 29 0 57 3 61 7 4 4 -44 19 -106 35
l-113 27 -79 83 c-44 46 -83 82 -88 81 -11 -4 -30 36 -23 47 4 6 1 9 -6 8 -7
-2 -15 5 -17 16 -2 10 0 16 6 13 5 -4 -6 31 -24 76 -21 51 -34 101 -35 132 -1
39 -3 44 -8 25 -6 -20 -9 -12 -15 37 -4 34 -5 77 -2 95 5 27 4 29 -4 13 -8
-15 -9 -8 -6 30 3 29 2 42 -3 30 -6 -15 -9 -11 -14 23 -13 78 -132 420 -143
409 -2 -2 14 -51 35 -108 22 -57 51 -145 66 -194 27 -94 58 -255 51 -263 -4
-4 -78 223 -141 432 -14 48 -28 86 -30 84 -7 -7 65 -263 118 -415 61 -176 75
-224 57 -207 -12 12 -100 223 -100 242 0 16 -96 410 -106 436 -5 14 -4 17 4
12 15 -9 15 -5 -2 64 -7 30 -24 75 -37 98 -13 24 -32 58 -41 74 -9 17 -21 34
-26 37 -5 3 -31 47 -57 96 -26 50 -65 116 -86 147 -26 38 -33 55 -22 51 24 -9
-29 62 -123 165 -101 110 -334 314 -351 307 -8 -2 -12 -1 -9 4 9 13 -135 90
-297 157 -143 61 -228 86 -142 44 22 -11 31 -18 20 -14 -11 3 -32 8 -47 11
-16 3 -28 12 -28 19 0 8 -3 13 -7 13 -5 -1 -21 -1 -38 0 -27 2 -28 3 -12 15
16 12 11 14 -37 20 -31 4 -76 4 -101 1 -25 -4 -45 -3 -45 2 0 13 62 34 74 24
6 -4 29 -9 51 -9 22 -1 57 -4 78 -8 20 -3 37 -4 37 -1 0 8 -140 38 -150 32 -5
-3 -10 -1 -10 6 0 8 -10 9 -32 4 -75 -17 -123 -22 -128 -14 -5 7 -164 47 -220
55 -77 10 -190 12 -222 4z m137 -29 c-20 -19 -322 -87 -334 -76 -6 7 122 64
167 74 51 12 179 13 167 2z m542 -108 c0 -7 -4 -13 -8 -13 -4 0 -9 6 -12 13
-3 8 0 14 7 14 7 0 13 -6 13 -14z m-37 -7 c0 -2 -7 -7 -16 -10 -8 -3 -12 -2
-9 4 6 10 25 14 25 6z m-30 -46 c-14 -4 -34 -8 -45 -8 -16 0 -15 2 5 8 14 4
34 8 45 8 16 0 15 -2 -5 -8z m-71 -14 c-10 -9 -69 -36 -69 -32 0 7 52 35 64
36 5 0 7 -2 5 -4z m279 -36 c23 -17 42 -33 42 -37 0 -3 -8 1 -17 9 -10 9 -34
25 -53 37 -19 11 -30 21 -24 21 6 0 30 -14 52 -30z m73 -67 c13 -16 12 -17 -3
-4 -17 13 -22 21 -14 21 2 0 10 -8 17 -17z m414 -113 c-3 -6 1 -7 9 -4 10 4
16 1 16 -9 0 -9 8 -21 18 -26 15 -9 15 -12 2 -22 -13 -9 -13 -10 2 -5 19 6
131 -82 142 -111 4 -10 -20 9 -53 42 -50 49 -63 57 -73 46 -11 -11 -10 -12 2
-6 8 5 12 4 7 0 -19 -21 -47 -14 -62 15 -9 17 -20 30 -25 30 -5 0 -12 10 -16
23 -4 12 -12 25 -18 29 -6 4 4 8 22 8 19 0 31 -4 27 -10z m-1595 -13 c0 -1
-28 -29 -62 -62 l-63 -60 60 63 c55 58 65 67 65 59z m-372 -158 c-43 -39 -115
-110 -160 -158 -46 -48 -74 -75 -63 -62 67 85 275 291 293 291 4 0 -28 -32
-70 -71z m2052 26 c14 -19 14 -19 -2 -6 -10 7 -18 18 -18 24 0 6 1 8 3 6 1 -2
9 -13 17 -24z m-2290 -39 c0 -2 -8 -10 -17 -17 -16 -13 -17 -12 -4 4 13 16 21
21 21 13z m-20 -216 c-40 -48 -65 -69 -38 -32 33 46 73 91 76 87 3 -2 -14 -27
-38 -55z m1210 0 c-16 -40 -23 -33 -9 9 6 18 14 30 17 27 2 -3 -1 -19 -8 -36z
m-460 -65 c0 -8 -4 -15 -10 -15 -5 0 -7 7 -4 15 4 8 8 15 10 15 2 0 4 -7 4
-15z m-10 -44 c0 -10 -7 -22 -16 -25 -8 -3 -12 -10 -9 -16 3 -5 1 -18 -5 -27
-9 -15 -10 -14 -4 7 3 14 3 22 0 18 -13 -11 -96 -141 -96 -148 0 -4 -8 -14
-17 -21 -20 -16 30 76 91 168 43 66 56 76 56 44z m185 -151 c-5 -90 -11 -138
-17 -132 -10 10 -5 196 7 250 14 62 17 23 10 -118z m-401 -2 c-32 -67 -64
-132 -71 -143 -13 -19 -14 -19 -9 6 5 32 125 273 132 266 3 -3 -21 -61 -52
-129z m1327 -198 c73 -241 123 -380 189 -516 l58 -121 -127 -6 c-69 -3 -141
-10 -159 -17 -18 -7 -35 -11 -36 -9 -2 2 0 31 5 64 28 195 20 487 -21 829 -17
136 -20 144 91 -224z m1 168 c117 -211 210 -428 287 -674 22 -72 41 -134 41
-138 0 -3 -13 -6 -30 -6 -26 0 -33 7 -57 53 -48 92 -94 199 -135 311 -52 145
-177 556 -169 556 4 0 32 -46 63 -102z m-1412 35 c0 -15 2 -16 10 -3 13 21 12
6 -1 -24 -7 -14 -16 -23 -22 -19 -6 3 -7 1 -4 -5 9 -14 -3 -43 -14 -36 -5 3
-7 -1 -4 -8 3 -8 -20 -29 -56 -53 -66 -44 -139 -118 -170 -174 -11 -20 -17
-27 -14 -16 4 11 11 33 15 48 11 35 78 129 164 230 65 75 96 95 96 60z m131 0
c-5 -10 -17 -27 -26 -38 l-16 -20 9 20 c5 11 7 25 5 32 -2 6 4 13 14 16 10 3
19 5 21 6 1 0 -2 -7 -7 -16z m-345 -74 c-14 -30 -25 -50 -25 -46 -1 12 41 108
45 104 3 -2 -7 -28 -20 -58z m-366 21 c-6 -11 -13 -20 -16 -20 -2 0 0 9 6 20
6 11 13 20 16 20 2 0 0 -9 -6 -20z m331 -13 c-10 -9 -11 -8 -5 6 3 10 9 15 12
12 3 -3 0 -11 -7 -18z m1410 -4 c1 -10 1 -21 0 -25 0 -5 5 -8 13 -8 9 0 18
-19 25 -50 19 -89 14 -113 -28 -118 -23 -2 -24 -1 -19 70 5 82 -4 58 -24 -62
-7 -41 -14 -64 -16 -52 -2 13 3 66 12 117 9 51 16 104 16 119 0 29 19 37 21 9z
m-213 -80 c-3 -48 -1 -78 3 -67 7 17 8 16 9 -6 1 -24 1 -24 15 -6 14 19 15 18
16 -15 l1 -34 11 28 c16 41 30 32 22 -15 -4 -31 -3 -39 4 -28 14 19 14 0 1
-34 -11 -29 -25 -34 -33 -12 -4 11 -1 13 11 9 14 -6 15 -4 5 9 -7 8 -9 19 -5
23 4 5 -1 5 -10 2 -9 -3 -22 1 -28 9 -17 19 -37 18 -50 -3 -9 -15 -10 -12 -6
14 3 18 8 63 11 100 7 82 13 113 21 113 4 0 4 -39 2 -87z m-1215 52 c-3 -9 -8
-14 -10 -11 -3 3 -2 9 2 15 9 16 15 13 8 -4z m-358 -35 c-9 -16 -18 -30 -21
-30 -2 0 2 14 11 30 9 17 18 30 21 30 2 0 -2 -13 -11 -30z m1904 -53 c0 -40
-4 -81 -9 -92 -6 -13 -9 14 -9 78 -1 63 3 96 9 92 6 -3 10 -39 9 -78z m850 21
c6 -24 13 -52 15 -63 1 -11 7 -29 12 -40 4 -11 8 -36 9 -57 0 -20 2 -34 4 -32
6 5 30 -84 30 -106 0 -8 -5 -3 -11 13 -12 34 -28 35 -28 2 0 -23 -3 -25 -27
-19 -16 4 -33 13 -39 20 -6 8 -21 14 -33 14 -11 0 -21 6 -21 13 0 6 -3 23 -5
37 -4 19 -3 21 3 6 7 -16 10 -16 23 -5 24 23 48 21 73 -6 28 -30 36 -31 36 -6
0 12 -7 18 -17 17 -14 -1 -20 11 -26 54 -5 30 -15 86 -23 124 -13 65 -12 92 5
81 5 -2 13 -24 20 -47z m-373 -91 c8 -26 13 -53 11 -60 -4 -8 -6 -6 -6 4 -1 9
-19 35 -40 58 -22 23 -42 54 -46 69 -3 15 -8 36 -12 47 -11 41 77 -71 93 -118z
m578 102 c8 -12 25 -50 37 -85 12 -35 26 -61 31 -58 4 3 8 1 8 -4 0 -6 -7 -12
-15 -16 -8 -3 -15 -14 -15 -25 0 -30 -19 -35 -29 -9 -14 35 -61 194 -61 207 0
19 28 12 44 -10z m-104 -126 c23 -126 34 -263 20 -263 -5 0 -7 15 -4 33 3 19
2 27 -3 20 -11 -15 -48 210 -38 228 5 7 4 10 -3 6 -12 -8 -28 86 -16 104 12
20 23 -13 44 -128z m-1250 120 c0 -5 -5 -15 -10 -23 -8 -12 -10 -11 -10 8 0
12 5 22 10 22 6 0 10 -3 10 -7z m105 -109 c-19 -109 -31 -122 -15 -18 17 115
22 140 27 126 3 -7 -3 -56 -12 -108z m-1338 84 c-3 -8 -6 -5 -6 6 -1 11 2 17
5 13 3 -3 4 -12 1 -19z m1910 -20 c-3 -8 -6 -5 -6 6 -1 11 2 17 5 13 3 -3 4
-12 1 -19z m632 -28 c0 -9 -4 -8 -9 5 -5 11 -9 27 -9 35 0 9 4 8 9 -5 5 -11 9
-27 9 -35z m-2562 -47 c-3 -10 -5 -4 -5 12 0 17 2 24 5 18 2 -7 2 -21 0 -30z
m1133 -53 c-16 -66 -24 -59 -9 9 6 29 13 50 16 47 3 -3 0 -28 -7 -56z m-1865
-130 c-8 -56 -18 -166 -22 -246 -3 -79 -10 -144 -14 -144 -4 0 -12 -12 -18
-27 -10 -25 -10 -25 -5 -3 3 14 8 52 10 85 19 265 45 457 61 442 2 -3 -3 -51
-12 -107z m2890 39 c38 -61 43 -93 7 -42 -19 27 -54 103 -48 103 2 0 20 -27
41 -61z m432 19 c-3 -7 -5 -2 -5 12 0 14 2 19 5 13 2 -7 2 -19 0 -25z m-1631
-125 c-15 -221 -25 -476 -20 -485 4 -6 -3 -5 -15 2 -22 11 -22 11 -5 -21 9
-18 18 -46 20 -63 6 -48 -31 48 -63 161 -19 68 -23 97 -15 102 8 5 6 12 -7 22
-11 10 -22 43 -30 91 -12 66 -11 78 2 99 9 13 25 48 36 77 19 47 73 111 95
112 5 0 6 -43 2 -97z m1571 -45 c-3 -8 -6 -5 -6 6 -1 11 2 17 5 13 3 -3 4 -12
1 -19z m100 0 c-3 -8 -6 -5 -6 6 -1 11 2 17 5 13 3 -3 4 -12 1 -19z m-1020
-105 c-2 -21 -4 -4 -4 37 0 41 2 58 4 38 2 -21 2 -55 0 -75z m-2257 2 c0 -8
-4 -15 -10 -15 -5 0 -7 7 -4 15 4 8 8 15 10 15 2 0 4 -7 4 -15z m-14 -71 c-4
-20 -10 -34 -13 -30 -3 3 -2 21 1 42 4 20 10 34 13 30 3 -3 2 -21 -1 -42z
m-38 -89 c-5 -55 -12 -129 -16 -165 l-8 -65 -8 108 c-8 98 -7 112 14 167 13
34 24 59 25 58 1 -2 -2 -48 -7 -103z m2299 43 c-2 -13 -4 -5 -4 17 -1 22 1 32
4 23 2 -10 2 -28 0 -40z m-982 30 c16 15 -20 -46 -64 -108 -25 -36 -45 -68
-43 -72 1 -5 -2 -8 -8 -8 -9 0 -11 6 -14 49 -1 8 24 38 54 67 30 29 51 56 46
61 -4 4 -16 -3 -25 -17 -9 -14 -29 -38 -44 -55 -20 -21 -15 -11 14 32 34 51
45 60 59 53 10 -5 21 -6 25 -2z m-1298 -115 c-2 -16 -4 -5 -4 22 0 28 2 40 4
28 2 -13 2 -35 0 -50z m2270 5 c-3 -8 -6 -5 -6 6 -1 11 2 17 5 13 3 -3 4 -12
1 -19z m399 -49 c28 -39 34 -55 34 -98 0 -34 -4 -51 -12 -52 -10 0 -10 -2 0
-6 6 -2 12 -18 12 -35 0 -24 -3 -29 -17 -24 -9 4 -36 11 -61 17 -24 5 -60 16
-80 25 -20 8 -42 12 -49 9 -8 -2 -12 -1 -9 4 10 15 -116 39 -144 28 -24 -9
-91 -14 -82 -6 4 4 22 9 41 11 19 2 36 9 39 16 3 9 -6 11 -37 6 l-42 -7 7 44
c10 65 21 89 41 89 10 1 56 7 103 15 47 7 116 13 153 12 l69 -1 34 -47z m28
35 c10 -25 7 -56 -4 -49 -6 3 -17 19 -25 36 -15 27 -14 29 4 29 10 0 22 -7 25
-16z m-1380 -35 c-2 -4 -15 -9 -29 -11 -26 -5 -25 2 4 35 15 18 16 18 22 0 4
-10 5 -21 3 -24z m-1445 -43 c-6 -26 -13 -45 -16 -43 -2 3 1 26 8 51 6 26 13
45 16 43 2 -3 -1 -26 -8 -51z m1276 -17 c9 -14 7 -15 -38 -23 -36 -7 -38 -6
-27 13 11 22 54 29 65 10z m182 -3 c4 -5 -7 -6 -27 -2 -38 7 -24 -3 34 -24 41
-15 25 -23 -21 -11 -21 6 -55 11 -75 11 -42 0 -47 6 -21 25 18 14 97 15 110 1z
m920 -48 c-3 -8 -6 -5 -6 6 -1 11 2 17 5 13 3 -3 4 -12 1 -19z m1420 -20 c-3
-7 -5 -2 -5 12 0 14 2 19 5 13 2 -7 2 -19 0 -25z m-2307 1 c10 -6 4 -7 -15 -3
-16 4 -37 11 -45 15 -10 6 -4 7 15 3 17 -4 37 -11 45 -15z m905 -37 c19 -11
18 -11 -7 -12 -22 0 -28 5 -28 23 0 12 3 17 8 11 4 -6 16 -16 27 -22z m120 18
c3 -6 -1 -7 -9 -4 -18 7 -21 14 -7 14 6 0 13 -4 16 -10z m45 -10 c13 -8 13
-10 -2 -10 -9 0 -20 5 -23 10 -8 13 5 13 25 0z m-87 -7 c-7 -2 -21 -2 -30 0
-10 3 -4 5 12 5 17 0 24 -2 18 -5z m-2403 -127 c-7 -36 -8 -31 -8 34 0 60 2
68 8 41 5 -19 5 -53 0 -75z m360 68 c0 -21 -4 -33 -10 -29 -14 9 -12 -9 3 -24
7 -7 13 -43 13 -89 1 -42 4 -106 8 -142 l6 -65 -27 55 c-23 47 -27 68 -28 145
0 74 19 185 32 185 2 0 3 -16 3 -36z m2280 14 c58 -11 109 -25 115 -30 15 -13
-62 -9 -148 7 -43 8 -111 15 -150 16 l-72 1 40 13 c57 19 97 18 215 -7z
m-1380 3 c0 -15 -51 -43 -66 -37 -19 7 -9 25 20 36 28 12 46 12 46 1z m1080
-11 c0 -5 -5 -10 -11 -10 -5 0 -7 5 -4 10 3 6 8 10 11 10 2 0 4 -4 4 -10z
m-46 -29 c-10 -10 -21 -16 -24 -14 -3 3 4 11 14 19 28 20 33 17 10 -5z m119 2
c-13 -2 -35 -2 -50 0 -16 2 -5 4 22 4 28 0 40 -2 28 -4z m1376 -38 c0 -5 -6
-1 -14 9 -8 11 -15 24 -15 30 0 5 7 1 15 -10 8 -10 14 -23 14 -29z m-2568 -2
c0 -16 3 -22 6 -15 7 18 24 14 21 -5 -2 -10 -23 -37 -46 -60 -38 -38 -49 -43
-88 -43 -25 0 -58 7 -74 15 -37 19 -38 24 -5 17 19 -3 25 0 25 13 0 14 -3 15
-15 5 -14 -12 -16 -10 -14 6 0 4 -5 11 -13 15 -10 7 -9 9 5 9 9 0 26 -5 36
-12 16 -10 25 -6 62 25 28 25 49 35 61 31 12 -3 18 0 18 10 0 28 20 17 21 -11z
m1634 5 c6 -4 2 -8 -7 -8 -10 0 -18 7 -18 17 0 9 3 12 8 7 4 -5 12 -12 17 -16z
m-1448 -14 c8 -8 18 -14 22 -14 5 0 20 -11 35 -25 14 -13 33 -22 41 -19 26 10
16 -12 -11 -25 -15 -6 -24 -14 -21 -17 3 -3 14 -1 25 5 12 6 34 11 50 11 23 0
33 -8 51 -40 l22 -39 -23 -15 c-24 -15 -99 -50 -133 -61 -13 -5 -16 -9 -7 -12
12 -5 78 8 117 24 16 6 15 1 -6 -38 -13 -24 -34 -49 -47 -55 -17 -8 -19 -13
-9 -17 15 -6 121 87 129 113 3 8 9 12 13 8 12 -11 -82 -155 -119 -183 -18 -14
-45 -25 -59 -25 -14 0 -38 -5 -54 -11 -62 -24 -355 -1 -466 37 l-47 16 6 52
c4 28 10 62 14 76 7 24 9 22 28 -21 26 -59 70 -129 80 -129 5 0 -6 29 -24 65
-46 91 -61 163 -45 217 l13 43 18 -22 c18 -23 127 -54 178 -52 23 2 24 2 5 6
-20 4 -19 7 22 46 24 23 46 56 50 72 13 56 10 55 76 49 34 -3 68 -12 76 -20z
m664 -1 c-12 -20 -14 -14 -5 12 4 9 9 14 11 11 3 -2 0 -13 -6 -23z m209 3 c0
-3 -4 -8 -10 -11 -5 -3 -10 -1 -10 4 0 6 5 11 10 11 6 0 10 -2 10 -4z m-170
-42 c-18 -21 -24 -10 -9 18 8 14 14 18 17 10 2 -7 -2 -19 -8 -28z m520 -12 c0
-8 -53 -42 -64 -42 -18 0 -2 31 22 43 27 13 42 13 42 -1z m-1677 -5 c3 -8 1
-20 -4 -28 -6 -10 -9 -7 -9 14 0 29 5 35 13 14z m1105 -40 c2 -29 -1 -47 -8
-47 -6 0 -8 -10 -4 -26 5 -19 4 -25 -5 -20 -6 4 -11 18 -11 32 0 14 -4 22 -10
19 -5 -3 -10 -32 -10 -64 0 -44 5 -65 20 -82 16 -20 21 -22 29 -9 8 11 12 8
22 -15 23 -59 -32 -231 -87 -274 -32 -25 -57 -17 -51 16 2 13 0 26 -4 29 -5 3
-9 21 -9 40 0 50 -16 33 -24 -25 -6 -46 -9 -51 -42 -61 -19 -7 -61 -34 -92
-62 -31 -27 -74 -59 -94 -69 -35 -18 -40 -18 -78 -3 -22 9 -40 21 -40 26 0 6
-6 8 -14 5 -10 -4 -16 2 -18 16 -6 46 -34 21 -81 -77 -35 -71 -46 -101 -38
-109 8 -8 11 -7 11 3 0 7 2 11 5 8 8 -8 -6 -39 -15 -33 -4 2 -6 -14 -5 -38 1
-24 0 -29 -2 -12 -5 27 -6 25 -19 -25 -8 -30 -22 -66 -32 -80 l-17 -25 -6 61
c-3 33 -9 66 -13 72 -9 15 -26 16 -26 1 0 -5 4 -8 9 -5 26 16 22 -105 -6 -171
-14 -35 -47 -45 -71 -21 -15 15 -28 3 -15 -14 5 -7 13 -22 17 -33 5 -17 4 -17
-12 3 -22 28 -45 109 -36 124 4 6 2 8 -3 5 -12 -8 -48 70 -57 123 -3 19 -3 29
0 23 3 -7 13 -13 21 -13 12 0 14 8 10 36 -3 20 -12 43 -18 51 -11 13 -14 13
-25 -2 -11 -15 -13 -13 -19 17 -6 30 -11 35 -58 48 -51 15 -53 17 -89 90 -32
63 -38 84 -38 140 0 36 4 60 8 53 4 -6 43 -22 87 -34 65 -19 106 -23 217 -23
76 -1 138 -2 138 -3 0 -10 -53 -118 -77 -156 -25 -41 -32 -46 -42 -33 -15 17
-86 56 -104 56 -13 0 -67 -46 -67 -58 0 -4 5 -14 10 -22 8 -12 10 -9 10 11 0
34 32 63 62 56 13 -4 40 -21 61 -38 38 -31 38 -32 32 -88 -4 -31 -16 -89 -26
-128 -21 -79 -25 -148 -9 -158 6 -4 10 6 10 23 0 16 7 48 15 71 8 22 11 41 7
41 -5 0 0 48 10 108 14 87 26 123 62 192 24 47 54 110 65 141 21 54 22 56 72
67 61 14 69 11 151 -64 66 -62 144 -114 167 -114 9 1 -4 11 -28 24 -24 12 -77
52 -117 87 l-73 64 29 22 c15 13 44 47 63 76 31 46 41 54 86 66 32 8 58 22 71
38 11 14 20 21 20 16 0 -16 -58 -94 -114 -152 -42 -44 -47 -52 -26 -46 25 8
25 8 6 -14 -11 -11 -16 -21 -11 -21 20 0 110 78 151 131 40 53 47 58 60 44 9
-8 23 -15 32 -15 11 1 8 6 -10 16 -30 16 -33 21 -19 43 8 12 13 12 36 -3 14
-9 32 -15 38 -13 7 2 -3 11 -20 21 -18 9 -33 21 -33 26 0 5 14 29 31 54 29 45
51 57 64 36 3 -5 15 -8 25 -7 21 3 40 17 24 17 -5 0 -17 7 -27 14 -16 12 -17
17 -5 35 22 36 43 22 46 -32z m682 -100 c-6 -40 -13 -85 -16 -102 -4 -32 -6
-46 -24 -138 -10 -51 -17 -61 -58 -93 -38 -30 -42 -36 -22 -32 14 3 33 9 42
13 13 5 15 2 11 -14 -7 -28 -61 -28 -220 -1 -235 40 -263 53 -304 137 -17 36
-19 47 -9 56 10 9 11 9 6 0 -3 -6 -3 -14 2 -17 12 -7 65 141 58 161 -4 10 -4
14 0 10 4 -4 13 6 20 23 7 16 20 30 28 30 8 0 19 8 24 17 8 13 11 10 17 -17
19 -85 76 -115 235 -124 47 -3 74 -3 60 0 -77 14 -75 13 -38 37 20 14 44 46
63 84 25 51 34 61 50 57 14 -3 30 5 50 26 l30 32 3 -37 c2 -20 -2 -69 -8 -108z
m866 31 c-3 -57 -11 -116 -16 -133 -9 -26 -9 -23 -5 20 2 28 7 87 11 133 4 45
9 82 12 82 3 0 2 -46 -2 -102z m-1286 37 l-7 -50 -2 46 c0 25 2 49 6 52 10 11
11 5 3 -48z m577 29 c41 -18 35 -34 -34 -89 -26 -21 -52 -42 -58 -47 -14 -13
46 11 62 24 8 6 15 9 18 7 5 -6 -85 -150 -122 -195 l-33 -39 12 32 c7 18 16
29 20 27 5 -3 6 7 3 23 -4 23 -4 24 4 8 5 -11 10 -15 10 -10 1 6 4 21 7 35 4
20 3 22 -5 10 -12 -16 -15 -2 -5 24 3 8 12 12 21 9 10 -4 14 -2 10 4 -4 6 -1
14 5 17 7 3 6 4 -4 3 -9 -1 -17 3 -18 8 -2 13 21 157 27 168 5 8 25 3 80 -19z
m811 -45 c-3 -22 -6 -20 -26 18 -29 55 -28 63 4 32 17 -17 25 -34 22 -50z
m-3615 -176 c1 -94 -1 -166 -5 -160 -12 19 -9 -4 6 -48 7 -22 16 -60 19 -85
l6 -45 -24 49 c-23 47 -23 57 -23 290 0 175 3 231 10 206 5 -19 10 -112 11
-207z m3819 148 c17 -25 27 -42 21 -38 -15 10 -93 112 -93 123 0 9 19 -12 72
-85z m-2282 64 c0 -8 -2 -15 -4 -15 -2 0 -6 7 -10 15 -3 8 -1 15 4 15 6 0 10
-7 10 -15z m970 -39 c0 -7 -16 -29 -37 -49 -21 -22 -30 -37 -22 -37 10 -1 8
-5 -5 -15 -21 -16 -98 -19 -131 -5 -16 7 -16 9 -4 9 10 1 16 9 15 18 0 12 7
19 22 21 16 2 22 -2 23 -15 0 -14 2 -13 10 6 9 23 10 24 31 5 21 -19 21 -19 9
3 -9 17 -8 25 4 37 8 8 15 19 15 24 0 6 16 10 35 10 21 0 35 -5 35 -12z m-119
-29 l-24 -22 19 27 c10 14 21 24 23 22 3 -3 -6 -15 -18 -27z m-81 13 c0 -5 -5
-10 -11 -10 -5 0 -7 5 -4 10 3 6 8 10 11 10 2 0 4 -4 4 -10z m-1496 -120 c-18
-81 -18 -82 -36 -58 -21 27 -24 45 -5 30 10 -9 12 -4 9 22 -2 21 2 37 12 45 9
8 16 25 16 39 0 19 3 23 11 15 7 -7 5 -34 -7 -93z m1214 25 l1 -20 -9 20 c-5
11 -8 34 -8 50 l0 30 8 -30 c4 -16 8 -39 8 -50z m272 64 c0 -5 5 -7 10 -4 6 3
10 2 10 -4 0 -5 -4 -13 -10 -16 -5 -3 -10 -1 -10 4 0 6 -7 11 -16 11 -8 0 -12
5 -9 10 8 13 25 13 25 -1z m-2343 -86 c-3 -10 -5 -2 -5 17 0 19 2 27 5 18 2
-10 2 -26 0 -35z m2132 -22 c-6 -18 -13 -30 -15 -28 -2 2 1 18 7 36 6 18 13
30 15 28 2 -2 -1 -18 -7 -36z m-2132 -33 c-3 -7 -5 -2 -5 12 0 14 2 19 5 13 2
-7 2 -19 0 -25z m2865 -105 c-2 -21 -14 -49 -26 -62 -29 -32 -133 -81 -173
-81 -52 0 -42 22 27 59 62 33 121 74 144 100 27 30 33 26 28 -16z m-1928 -3
c88 -25 224 -39 319 -33 41 2 67 0 67 -7 0 -13 -224 -13 -305 0 -126 20 -165
31 -165 46 0 18 -4 18 84 -6z m1131 -30 c11 9 16 6 26 -12 7 -13 17 -26 23
-30 6 -4 11 -14 11 -23 0 -32 232 -100 375 -111 49 -4 90 -11 90 -16 0 -18
-70 -171 -87 -190 -9 -10 -14 -21 -11 -24 7 -7 63 85 94 154 29 66 36 72 87
72 20 0 37 5 37 10 0 6 -19 10 -42 10 -58 1 -30 16 42 24 30 3 49 3 43 0 -7
-3 -13 -10 -13 -15 0 -16 41 -9 72 12 l30 22 -7 -34 c-8 -35 -75 -239 -90
-273 -7 -15 -5 -18 6 -12 8 4 3 -2 -11 -14 -14 -12 -56 -37 -95 -56 -65 -33
-67 -35 -30 -29 22 3 53 8 68 11 l28 6 -25 -27 c-14 -15 -28 -37 -32 -49 -4
-11 -20 -37 -35 -57 -16 -20 -32 -46 -37 -59 -7 -19 -13 -15 -58 50 -97 143
-145 217 -199 307 -61 101 -93 133 -138 133 -18 0 -48 13 -77 35 -48 35 -91
44 -120 25 -11 -7 -3 -9 25 -4 35 5 47 1 90 -30 32 -23 61 -36 81 -36 43 0 70
-29 134 -140 30 -52 73 -125 96 -161 36 -57 44 -80 60 -175 18 -114 23 -308
10 -406 -6 -49 -10 -57 -26 -55 -11 2 -23 6 -26 10 -4 4 -13 -1 -19 -10 -11
-15 -18 -9 -59 47 -26 35 -45 68 -43 74 2 6 -9 30 -24 52 -30 44 -85 179 -69
169 19 -12 10 31 -15 67 l-25 38 20 20 c30 30 25 42 -17 36 -30 -5 -33 -4 -12
3 41 14 111 63 101 73 -5 5 -25 2 -46 -7 -21 -9 -41 -14 -44 -11 -3 3 0 6 6 6
7 0 12 3 12 8 0 8 -49 14 -122 16 -25 1 -44 4 -41 9 4 7 -11 11 -32 8 -5 -1
-1 6 10 14 11 9 25 13 33 10 7 -2 11 -1 9 3 -3 4 15 23 39 42 l44 35 -59 3
c-53 3 -68 -2 -139 -38 -90 -45 -114 -66 -92 -80 10 -6 13 -28 12 -82 -3 -82
4 -96 58 -126 36 -19 83 -78 77 -96 -11 -33 -93 -28 -170 11 -16 8 -45 15 -65
17 -29 1 -40 8 -50 30 -22 43 -47 320 -33 354 9 22 35 38 125 80 62 29 116 52
120 52 17 0 196 93 196 102 0 10 -15 3 -40 -17 -8 -7 -49 -26 -90 -43 -124
-50 -304 -138 -319 -156 -18 -22 -19 -90 -3 -231 13 -115 29 -175 48 -187 7
-4 15 -20 18 -34 4 -15 18 -41 32 -59 13 -17 24 -34 24 -37 0 -3 -33 12 -74
33 l-74 39 -32 88 c-17 48 -45 138 -61 201 -26 100 -28 119 -17 154 8 26 22
46 42 58 17 11 25 19 18 19 -27 0 -54 -22 -68 -55 -16 -40 -19 -111 -4 -120 6
-3 10 -23 10 -44 0 -20 7 -61 15 -89 9 -29 13 -57 10 -62 -9 -14 15 -81 26
-75 9 6 10 5 14 -31 1 -12 5 -26 9 -33 12 -18 -2 -12 -25 12 l-22 22 6 -22 c7
-29 0 -29 -68 1 -44 20 -55 30 -55 48 0 13 -11 67 -25 121 -27 105 -31 131
-15 107 16 -25 23 15 12 68 l-10 47 -1 -47 c0 -27 -5 -48 -11 -48 -6 0 -10 38
-10 94 l0 95 35 29 c20 16 69 48 110 72 83 47 121 49 163 9 24 -22 29 -41 9
-33 -7 2 -31 -11 -52 -31 l-40 -35 100 46 c124 56 141 67 188 120 21 24 47 46
57 49 26 8 26 25 0 32 -11 3 -17 10 -14 15 3 5 12 7 19 4 15 -5 43 23 74 74
23 38 27 55 11 45 -6 -4 -7 1 -3 11 4 12 8 14 11 6 3 -10 7 -10 17 -2z m-57
-71 c-12 -22 -28 -45 -36 -51 -7 -7 1 12 19 40 38 62 50 69 17 11z m470 -76
c-10 -2 -26 -2 -35 0 -10 3 -2 5 17 5 19 0 27 -2 18 -5z m105 -10 c-13 -2 -33
-2 -45 0 -13 2 -3 4 22 4 25 0 35 -2 23 -4z m-2539 -55 c3 -18 22 -58 40 -88
32 -51 33 -59 26 -105 -5 -27 -17 -74 -28 -103 -24 -66 -26 -59 -41 128 -7 74
-13 152 -15 173 -5 45 9 41 18 -5z m716 17 c11 -13 10 -14 -4 -9 -9 3 -16 10
-16 15 0 13 6 11 20 -6z m687 -57 c-3 -7 -5 -2 -5 12 0 14 2 19 5 13 2 -7 2
-19 0 -25z m77 -27 c-2 -3 -12 3 -22 13 -16 17 -16 18 5 5 12 -7 20 -15 17
-18z m-547 -51 c3 0 -2 9 -13 21 -18 20 -18 20 11 13 41 -9 45 -12 45 -33 0
-21 44 -166 87 -286 22 -62 45 -102 98 -168 174 -219 199 -253 163 -230 -7 4
-16 8 -20 8 -6 0 -41 33 -285 263 -50 48 -99 89 -108 90 -12 3 -15 0 -10 -9 6
-8 4 -10 -4 -4 -26 16 6 27 45 16 22 -6 53 -11 69 -10 l30 0 -36 14 c-54 20
-119 55 -117 63 1 4 -17 43 -39 88 -47 92 -95 205 -89 211 2 3 17 -17 32 -44
15 -26 31 -50 34 -53 3 -3 22 -26 43 -52 21 -27 45 -48 53 -48 8 0 14 2 14 5
0 5 -38 74 -81 147 -16 27 -29 51 -29 53 0 3 23 -9 50 -25 28 -17 54 -30 57
-30z m515 46 c16 -12 14 -16 -22 -45 -44 -35 -49 -30 -22 23 19 40 20 40 44
22z m-71 -34 c-5 -10 -18 -25 -27 -33 -16 -12 -17 -12 -9 1 10 18 37 50 42 50
2 0 -1 -8 -6 -18z m574 -262 c3 -6 -1 -7 -9 -4 -18 7 -21 14 -7 14 6 0 13 -4
16 -10z m105 -40 c8 -5 11 -10 5 -10 -5 0 -17 5 -25 10 -8 5 -10 10 -5 10 6 0
17 -5 25 -10z m1360 -201 c7 -43 6 -83 -2 -121 -6 -32 -12 -58 -14 -58 -2 0
-15 12 -30 27 l-26 26 15 56 c8 31 19 78 22 104 10 63 23 49 35 -34z m-2440
-289 c-11 -22 -25 -38 -30 -35 -6 3 -1 15 9 26 10 11 22 35 26 52 5 21 9 26
12 15 2 -9 -5 -35 -17 -58z m27 -62 c-6 -4 -17 -2 -23 3 -10 8 -9 17 4 39 l17
30 7 -33 c4 -20 2 -34 -5 -39z m-67 4 c0 -25 -110 -92 -150 -92 -37 0 -17 21
39 40 29 10 63 27 74 39 22 22 37 27 37 13z m57 -92 c7 -41 13 -98 13 -127 1
-49 -2 -55 -45 -99 -25 -25 -53 -57 -62 -70 -8 -13 -19 -24 -24 -24 -4 0 -27
57 -49 127 l-42 128 24 15 c12 8 50 41 83 72 33 32 67 57 75 55 10 -1 19 -25
27 -77z m1128 -46 c52 -138 52 -138 -14 -150 -41 -8 -93 15 -117 50 -14 22
-15 34 -4 93 9 53 18 74 43 99 18 18 35 33 38 33 4 1 28 -56 54 -125z m-1480
-226 c26 -39 51 -84 56 -100 7 -26 5 -29 -28 -43 -29 -12 -39 -13 -52 -3 -32
25 -47 44 -67 87 l-21 44 26 43 c14 24 29 44 32 44 3 0 28 -32 54 -72z m355
52 c0 -5 -5 -10 -11 -10 -5 0 -7 5 -4 10 3 6 8 10 11 10 2 0 4 -4 4 -10z m20
-19 c0 -5 -7 -12 -16 -15 -14 -5 -15 -4 -4 9 14 17 20 19 20 6z m-50 -21 c0
-5 -4 -10 -10 -10 -5 0 -10 5 -10 10 0 6 5 10 10 10 6 0 10 -4 10 -10z m-485
-30 c3 -5 1 -10 -4 -10 -6 0 -11 5 -11 10 0 6 2 10 4 10 3 0 8 -4 11 -10z m35
-75 c0 -6 14 -27 30 -47 l31 -37 -51 -15 c-29 -9 -67 -18 -86 -22 l-34 -6 0
80 0 80 38 9 c32 9 39 7 54 -11 10 -12 18 -26 18 -31z m10 45 c0 -5 -2 -10 -4
-10 -3 0 -8 5 -11 10 -3 6 -1 10 4 10 6 0 11 -4 11 -10z m20 -40 c0 -5 -5 -10
-11 -10 -5 0 -7 5 -4 10 3 6 8 10 11 10 2 0 4 -4 4 -10z m25 -40 c3 -5 1 -10
-4 -10 -6 0 -11 5 -11 10 0 6 2 10 4 10 3 0 8 -4 11 -10z m42 -36 c-3 -3 -12
-4 -19 -1 -8 3 -5 6 6 6 11 1 17 -2 13 -5z m787 0 c14 -5 14 -9 0 -36 l-16
-31 -24 29 c-13 16 -23 32 -24 37 0 8 42 9 64 1z m982 -31 c36 -5 42 -8 29
-15 -34 -20 -73 -26 -85 -15 -10 9 -11 9 -6 -3 4 -8 -2 -4 -13 9 -28 31 -27
45 4 37 14 -4 46 -9 71 -13z m-106 -127 c0 -3 -4 -8 -10 -11 -5 -3 -10 -1 -10
4 0 6 5 11 10 11 6 0 10 -2 10 -4z"/>
<path d="M1895 2460 c-4 -6 24 -10 71 -10 43 0 75 2 73 4 -11 9 -139 14 -144
6z"/>
<path d="M2690 2106 c0 -22 3 -27 11 -19 8 8 8 16 0 30 -9 16 -10 14 -11 -11z"/>
<path d="M1784 1878 l-19 -23 23 19 c21 18 27 26 19 26 -2 0 -12 -10 -23 -22z"/>
<path d="M2274 1601 c4 -6 9 -28 11 -48 2 -19 10 -43 19 -52 15 -14 16 -13 10
19 -13 66 -20 84 -33 88 -9 3 -11 0 -7 -7z"/>
<path d="M2835 4880 l-30 -8 30 0 c17 0 44 4 60 8 l30 8 -30 0 c-16 0 -43 -4
-60 -8z"/>
<path d="M2985 4802 c6 -6 44 -20 85 -32 89 -26 205 -79 314 -144 44 -26 74
-41 68 -33 -7 8 -9 16 -6 20 6 6 -103 90 -148 113 -48 25 -31 9 37 -35 98 -63
90 -71 -16 -14 -139 74 -369 160 -334 125z"/>
<path d="M1584 4605 c-10 -8 -14 -15 -8 -15 6 0 17 7 24 15 16 19 9 19 -16 0z"/>
<path d="M1560 4539 l-35 -30 38 26 c33 24 43 35 34 35 -1 0 -18 -14 -37 -31z"/>
<path d="M1164 4258 c-112 -116 -177 -194 -220 -263 -28 -46 -12 -28 57 65 34
47 114 138 177 203 64 64 113 117 110 117 -2 0 -58 -55 -124 -122z"/>
<path d="M3789 4305 c86 -95 199 -261 257 -380 65 -131 73 -115 10 20 -56 118
-233 358 -298 403 -13 9 1 -11 31 -43z"/>
<path d="M3759 4295 c15 -30 51 -71 51 -60 -1 6 -14 26 -31 45 -17 19 -26 26
-20 15z"/>
<path d="M913 3948 c-15 -20 -25 -38 -20 -38 3 0 12 11 21 25 17 26 16 35 -1
13z"/>
<path d="M870 3880 c-6 -11 -8 -20 -6 -20 3 0 10 9 16 20 6 11 8 20 6 20 -3 0
-10 -9 -16 -20z"/>
<path d="M4191 3555 c0 -5 6 -21 14 -35 8 -14 14 -20 14 -15 0 6 -6 21 -14 35
-8 14 -14 21 -14 15z"/>
<path d="M4230 3545 c0 -5 5 -17 10 -25 5 -8 10 -10 10 -5 0 6 -5 17 -10 25
-5 8 -10 11 -10 5z"/>
<path d="M4401 2934 c0 -11 3 -14 6 -6 3 7 2 16 -1 19 -3 4 -6 -2 -5 -13z"/>
<path d="M1588 334 c-3 -5 1 -22 8 -39 10 -22 13 -25 13 -10 -1 28 -14 61 -21
49z"/>
<path d="M260 251 c-63 -25 -121 -53 -117 -57 2 -3 21 3 43 12 21 10 68 27
104 40 37 13 54 23 40 22 -14 0 -45 -8 -70 -17z"/>
<path d="M37 153 c-4 -3 -7 -25 -7 -47 l1 -41 19 35 c11 19 19 41 20 48 0 13
-22 17 -33 5z"/>
<path d="M3750 51 c0 -11 51 -21 64 -13 5 3 1 9 -10 13 -27 11 -54 11 -54 0z"/>
</g>
</svg>
